<svg clip-rule="evenodd" fill-rule="evenodd" stroke-linejoin="round" stroke-miterlimit="2" viewBox="0 0 232 299" xmlns="http://www.w3.org/2000/svg"><g transform="matrix(.939441 0 0 .640364 -3732.986 -391.324)"><path d="m3973.63 610.133h932.509v470.367h-932.509z" fill="none"/><g fill-rule="nonzero" transform="matrix(1.72120529647 0 0 2.5250716326 3974.292189212 611.41545884)"><path d="m111.186 44.865c-1.118-.255-1.914-1.242-1.928-2.388-.053-4.489.921-7.683 2.976-9.764 1.619-1.638 3.81-2.469 6.511-2.469 1.976 0 4.196.435 6.785 1.331 1.004.347 1.675 1.293 1.67 2.354-.035 7.485-3.83 11.607-10.686 11.607-1.588 0-3.38-.226-5.328-.671z" fill="#012b5a"/><path d="m78.96 45.536c-6.856 0-10.652-4.122-10.687-11.607-.004-1.061.666-2.007 1.67-2.354 2.589-.896 4.808-1.331 6.785-1.331 2.701 0 4.892.831 6.511 2.469 2.055 2.081 3.03 5.275 2.976 9.764-.014 1.146-.811 2.133-1.927 2.388-1.949.445-3.741.671-5.328.671z" fill="#012b5a"/><path d="m96.235 63.423c-3.917-5.329-5.219-9.249-4.098-12.336.543-1.493 1.944-3.456 5.537-4.334.427-.105.875-.095 1.297.025 3.039.869 4.3 2.693 4.822 4.071 1.156 3.046.082 6.997-3.382 12.434-.449.705-1.217 1.144-2.051 1.171-.028.001-.057.001-.085.001-.804 0-1.562-.381-2.04-1.032z" fill="#012b5a"/><path d="m77.65 79.157c-.004.006-.008.012-.013.018-1.256-.947-2.756-1.576-4.489-1.849-5.834-.916-13.959 2.291-22.287 8.748-4.226 3.275-8.453 7.342-12.368 11.905-4.273 4.977-8.024 10.461-11.355 16.019-6.267 10.458-11.064 21.119-15.101 31.339-3.519 8.907-6.489 17.655-9.035 26.193-.773 2.591-1.506 5.165-2.185 7.712-.354 1.331-1.011 3.295-.762 4.175.034.119.061.312.122.427.012.229.56.141.705.128.077-.007.159-.022.242-.042.014-.004.028-.007.042-.011.008-.002.017-.005.025-.007.419-.113.908-.374 1.371-.647.021-.012.042-.025.064-.038.752-.446 1.511-.927 2.269-1.408.67-.423 1.341-.852 2.013-1.286 2.516-1.622 5.042-3.308 7.574-5.051l.135-.093c.221-.152.442-.304.662-.458 3.359-2.322 6.729-4.745 10.102-7.273 3.309-2.475 6.626-5.052 9.936-7.752 4.729-3.844 9.473-7.945 14.128-12.384 6.126-5.801 12.216-12.264 17.5-19.402.666-.899 1.317-1.81 1.952-2.728.071-.104.143-.208.214-.311.018-.026.036-.052.053-.077.049-.072.098-.143.147-.214.466-.686.922-1.375 1.369-2.068.012-.02.025-.039.037-.058.057-.089.114-.178.171-.267.061-.094.121-.189.182-.285.035-.055.07-.11.105-.166 1.351-2.138 2.606-4.305 3.745-6.472.644-1.225 1.247-2.447 1.812-3.662.024-.051.047-.102.071-.154.06-.129.12-.259.178-.388.696-1.522 1.33-3.035 1.895-4.527 1.071-2.826 1.9-5.574 2.468-8.175.113-.515.214-1.024.305-1.525.157-.85.285-1.683.382-2.497.86-7.207-.703-12.665-4.381-15.389z" fill="#f7c023"/><path d="m67.112 100.896c-.002-.011-.004-.022-.006-.034.003.021.007.045.011.069-.002-.011-.003-.023-.005-.035z" fill="#27a0d8"/><path d="m87.89 73.747c.151.258.299.515.445.772.081.142.167.285.246.427.308.552.598 1.098.873 1.639.03.059.058.116.087.175.568 1.13 1.071 2.237 1.507 3.315h.008c2.171 10.842-.178 21.725-.829 23.842-3.998 13.805-13 29-37 51-3.049 2.795-20.287 17.512-20.287 17.512-.131.129-.282.283-.446.454-2.28 2.362-7.116 8.095 3.623 4.32 0 0 13.895-5.25 26.994-11.783 65.907-32.117 75.407-70.367 75.149-90.502.246-4.169-.087-8.5-1.539-12.336-.283-1.083-.493-1.665-.493-1.665l-.178.089c-.032-.066-.059-.136-.092-.202 4.027-6.25 6.394-13.586 6.544-21.433.577-30.244-19.562-39.317-43.782-39.317s-43.854 8.569-43.927 39.317c-.019 7.609 2.182 14.721 5.992 20.84 0 0 1.13 2.316 4.442 1.753l1.016-.421c2.333-1.201.422-3.813.422-3.813l-.089-.141c-3.297-4.373-4.952-9.909-4.888-16.529.111-11.326 2.639-19.221 7.517-23.465 4.358-3.795 9.972-3.983 13.91-3.474 5.805.751 10.462 11.039 11.676 14.686.342 1.028 1.139 1.873 2.18 2.175 1.763.51 3.503-.477 4.039-2.108 1.189-3.586 5.892-14.001 11.705-14.753.955-.123 2.01-.205 3.12-.205 3.469 0 7.489.805 10.79 3.679 4.878 4.244 7.406 12.139 7.517 23.465.05 5.207-.976 9.736-3.012 13.567-.415.782-.882 1.53-1.378 2.255-.177.255-.351.511-.537.757-.18.241-.367.477-.557.71-.432.524-.875 1.04-1.357 1.527-9.024 9.111-24.776 9.819-29.39 9.819-.632 0-1.476-.016-2.484-.066-.336-.017-.691-.037-1.061-.062-1.176-.079-2.517-.202-3.968-.392-.912-.222-1.359-.03-1.359-.03-.074.051-.147.104-.218.159-.111.086-.217.183-.32.281-.024.022-.05.04-.073.063-.113.112-.218.235-.318.363-.01.013-.023.024-.033.038-.104.137-.198.286-.283.442-.003.007-.007.012-.011.018-.086.163-.159.336-.22.52 0 .002-.001.003-.002.005-.056.172-.097.356-.126.548-.002.016-.008.03-.01.045-.025.177-.03.367-.028.562 0 .036-.006.068-.005.104.002.068.007.136.014.207 0 0 .105.514.484 1.247z" fill="#012b5a"/></g></g></svg>