<svg clip-rule="evenodd" fill-rule="evenodd" stroke-linejoin="round" stroke-miterlimit="2" viewBox="0 0 602 103" xmlns="http://www.w3.org/2000/svg"><g transform="matrix(.939441 0 0 .640364 -4006.986 -517.324)"><path d="m3973.63 610.133h932.509v470.367h-932.509z" fill="none"/><g fill-rule="nonzero" transform="matrix(2.0704716522 0 0 3.0374635012 3941.36875078 556.23926322)"><path d="m186.639 106.806c-.857-.52-1.919-1.019-3.271-1.533-.96-.347-2.181-.74-3.63-1.167-.089-.025-.179-.045-.271-.058-.152-.022-.335-.072-.544-.15-.051-.018-.102-.035-.153-.05l-2.699-.752c-1.265-.358-2.268-.691-3.022-1.008-1.331-.526-2.226-1.35-2.727-2.499-.238-.564-.354-1.105-.354-1.654 0-.535.111-1.045.34-1.558.459-1.031 1.426-2.401 4.499-2.401.498 0 1.027.036 1.616.114 3.375.371 6.707 2.103 9.903 5.148.451.428 1.085.607 1.692.478.608-.129 1.113-.55 1.351-1.124 1.276-3.089 2.388-5.692 3.308-7.741.386-.859.078-1.872-.721-2.371-2.092-1.307-4.304-2.435-6.599-3.362-2.623-1.022-5.184-1.655-7.607-1.88-4.348-.411-8.219.134-11.491 1.595-3.82 1.671-6.464 4.397-7.858 8.098-.664 1.754-1.001 3.544-1.001 5.317 0 1.874.386 3.765 1.159 5.647 1.474 3.426 3.848 5.964 7.083 7.557.852.404 1.867.811 3.039 1.217.799.265 1.865.551 3.168.845l.099.034c.255.128.506.191.705.229l.693.172c.612.176 1.153.306 1.647.4 1.031.308 1.939.618 2.729.933 3.527 1.334 3.935 3.075 3.935 4.27 0 .302-.032.633-.095.982-.229 1.254-.866 2.104-1.982 2.662-.951.459-2.155.693-3.579.693h-.861c-1.747-.161-3.9-.875-6.392-2.122-2.424-1.231-4.273-2.532-5.497-3.866-.451-.492-1.129-.708-1.779-.571-.652.138-1.183.609-1.396 1.24l-2.766 8.17c-.262.774.004 1.628.66 2.116 2.094 1.563 4.59 2.912 7.39 4.004 3.395 1.386 6.595 2.088 9.51 2.088h.943c4.366 0 8.098-.84 11.099-2.501 3.702-2.067 6.042-5.234 6.947-9.374.326-1.356.492-2.689.492-3.961 0-5.22-2.595-9.359-7.712-12.306z" fill="#012b5a"/><path d="m235.952 83.355h-7.918c-1.042 0-1.886.845-1.886 1.886v17.657h-15.459v-17.657c0-1.041-.844-1.886-1.885-1.886h-7.919c-1.041 0-1.885.845-1.885 1.886v47.193c0 1.042.844 1.886 1.885 1.886h7.919c1.041 0 1.885-.844 1.885-1.886v-18.475h15.459v18.475c0 1.042.844 1.886 1.886 1.886h7.918c1.041 0 1.885-.844 1.885-1.886v-47.193c0-1.041-.844-1.886-1.885-1.886z" fill="#012b5a"/><path d="m255.621 83.355h-7.98c-1.042 0-1.886.845-1.886 1.886v47.193c0 1.042.844 1.886 1.886 1.886h7.98c1.042 0 1.885-.844 1.885-1.886v-47.193c0-1.041-.843-1.886-1.885-1.886z" fill="#012b5a"/><path d="m277.489 94.415h7.605c1.367 0 2.404.538 3.282 1.717.882 1.144 1.35 2.517 1.429 4.194-.08 1.877-.584 3.385-1.54 4.607-.994 1.241-2.194 1.832-3.738 1.862h-7.038zm7.918-11.06h-17.784c-1.042 0-1.886.845-1.886 1.886v47.193c0 1.042.844 1.886 1.886 1.886h7.981c1.042 0 1.885-.844 1.885-1.886v-14.579h7.353c4.793 0 8.869-1.742 12.116-5.178 3.178-3.365 4.789-7.521 4.789-12.355 0-4.619-1.566-8.644-4.672-11.986-3.164-3.304-7.09-4.981-11.668-4.981z" fill="#012b5a"/><path d="m366.991 83.355h-8.547c-.881 0-1.646.613-1.839 1.473l-6.309 28.099-6.617-25.273c-.218-.83-.967-1.408-1.825-1.408h-7.981c-.873 0-1.633.6-1.834 1.45l-6.074 25.609-6.913-28.508c-.205-.846-.961-1.442-1.832-1.442h-8.61c-.583 0-1.133.27-1.491.732-.357.462-.479 1.063-.333 1.628l12.254 47.193c.216.831.966 1.412 1.825 1.412h9.992c.874 0 1.634-.601 1.835-1.453l5.345-22.687 5.824 22.723c.214.834.965 1.417 1.827 1.417h9.992c.872 0 1.63-.598 1.833-1.446l11.311-47.194c.135-.562.005-1.153-.352-1.606-.358-.454-.904-.719-1.481-.719z" fill="#ffc21a"/><path d="m383.204 83.355h-7.98c-1.042 0-1.886.845-1.886 1.886v47.193c0 1.042.844 1.886 1.886 1.886h7.98c1.042 0 1.886-.844 1.886-1.886v-47.193c0-1.041-.844-1.886-1.886-1.886z" fill="#ffc21a"/><path d="m420.863 106.806c-.856-.52-1.919-1.019-3.271-1.533-.959-.347-2.18-.74-3.629-1.167-.089-.025-.18-.045-.272-.058-.151-.022-.335-.072-.544-.15-.05-.018-.101-.035-.153-.05l-2.698-.752c-1.266-.358-2.269-.691-3.023-1.008-1.331-.526-2.225-1.35-2.726-2.499-.238-.564-.355-1.105-.355-1.654 0-.535.112-1.045.34-1.558.46-1.031 1.426-2.401 4.499-2.401.498 0 1.028.036 1.616.114 3.375.371 6.707 2.103 9.904 5.148.45.428 1.086.607 1.691.478.609-.129 1.114-.55 1.352-1.124 1.275-3.089 2.388-5.692 3.308-7.741.385-.859.077-1.872-.721-2.371-2.092-1.307-4.305-2.435-6.599-3.362-2.624-1.022-5.185-1.655-7.607-1.88-4.349-.411-8.219.134-11.492 1.595-3.82 1.671-6.463 4.397-7.857 8.098-.665 1.754-1.002 3.544-1.002 5.317 0 1.874.387 3.765 1.159 5.647 1.474 3.426 3.849 5.964 7.083 7.557.852.404 1.867.811 3.04 1.217.799.265 1.865.551 3.167.845l.1.034c.255.127.506.191.705.229l.692.172c.613.176 1.153.306 1.648.4 1.031.308 1.938.618 2.729.933 3.526 1.334 3.934 3.075 3.934 4.27 0 .302-.031.633-.095.982-.228 1.254-.865 2.104-1.981 2.662-.951.459-2.156.693-3.579.693h-.862c-1.746-.161-3.9-.875-6.392-2.122-2.423-1.231-4.273-2.532-5.496-3.866-.452-.492-1.127-.708-1.779-.571-.652.138-1.183.609-1.397 1.24l-2.765 8.17c-.263.774.004 1.628.659 2.116 2.095 1.563 4.59 2.912 7.391 4.004 3.395 1.386 6.595 2.088 9.51 2.088h.942c4.366 0 8.099-.84 11.1-2.501 3.702-2.067 6.042-5.234 6.946-9.374.327-1.356.492-2.689.492-3.961 0-5.22-2.595-9.359-7.712-12.306z" fill="#ffc21a"/><path d="m465.952 132.211-.88-7.353c-.113-.948-.917-1.661-1.872-1.661h-18.286v-9.427h16.59c1.041 0 1.885-.843 1.885-1.885v-6.975c0-1.042-.844-1.886-1.885-1.886h-16.59v-8.609h18.915c1.041 0 1.885-.843 1.885-1.885v-7.289c0-1.041-.844-1.886-1.885-1.886h-28.719c-1.042 0-1.885.845-1.885 1.886v47.193c0 1.042.843 1.886 1.885 1.886h28.971c.538 0 1.052-.231 1.41-.634s.526-.94.461-1.475z" fill="#ffc21a"/></g></g></svg>